<svg width="382" height="313" viewBox="0 0 382 313" fill="none" xmlns="http://www.w3.org/2000/svg">
<g id="Group 1321318929">
<path id="Vector_13" d="M32.4508 134.899L28.0508 114.199H182.551L186.951 134.799C187.951 139.599 184.351 144.199 179.351 144.199H43.9508C38.3508 144.299 33.5508 140.399 32.4508 134.899Z" fill="#FFFCF7" stroke="black" stroke-width="0.5"/>
<path id="Vector_14" d="M66.9508 125.899C67.3508 125.899 67.6508 126.099 67.8508 126.399C67.9508 126.499 67.9508 126.599 67.9508 126.699C68.0508 126.799 68.0508 126.899 68.1508 127.099L69.9508 129.599V129.699C69.9508 129.799 69.8508 129.999 69.6508 130.199C69.5508 130.399 69.3508 130.599 69.1508 130.799C68.9508 130.999 68.8508 131.199 68.6508 131.299C68.5508 131.399 68.5508 131.399 68.4508 131.399H62.1508L60.2508 125.199L66.9508 125.899ZM59.8508 125.299L61.7508 131.499H53.6508L52.0508 124.699L59.8508 125.299ZM53.7508 131.999H61.9508L63.3508 136.399C63.3508 136.399 63.3508 136.399 63.3508 136.499C63.3508 136.599 63.2508 136.699 63.2508 136.799C63.1508 136.999 62.9508 137.199 62.7508 137.499C62.5508 137.699 62.3508 137.999 62.1508 138.099C62.0508 138.199 61.9508 138.199 61.9508 138.299H61.8508H55.9508C55.4508 138.299 55.1508 137.999 55.0508 137.499L53.7508 131.999ZM51.5508 124.599L53.1508 131.499H45.4508C44.9508 131.499 44.6508 131.199 44.5508 130.699L43.5508 126.299V126.199C43.5508 126.099 43.6508 125.999 43.6508 125.899C43.7508 125.699 43.9508 125.399 44.1508 125.099C44.3508 124.799 44.5508 124.499 44.7508 124.299C44.8508 124.199 44.9508 124.099 44.9508 124.099C44.9508 124.099 44.9508 124.099 45.0508 124.099L51.5508 124.599ZM59.6508 124.799L51.9508 124.199L50.7508 118.999C50.7508 118.999 50.7508 118.999 50.7508 118.899C50.7508 118.799 50.8508 118.699 50.8508 118.599C50.9508 118.399 51.0508 118.099 51.2508 117.899C51.4508 117.599 51.5508 117.399 51.7508 117.199C51.9508 116.999 52.0508 116.799 52.1508 116.699C52.1508 116.699 52.1508 116.699 52.2508 116.699L56.5508 118.299C56.6508 118.399 56.8508 118.399 56.9508 118.399C56.9508 118.399 56.9508 118.399 57.0508 118.399C57.1508 118.399 57.2508 118.399 57.3508 118.499C57.6508 118.599 57.9508 118.899 58.0508 119.199L59.6508 124.799Z" fill="black" stroke="black" stroke-width="0.5"/>
<path id="Vector_15" d="M43.9508 125.7C43.8508 125.1 44.2508 124.5 44.9508 124.5H67.0508C67.9508 124.5 68.7508 125.1 69.0508 126.1L69.8507 129.4C69.9508 130 69.5508 130.6 68.8507 130.6H46.6508C45.7508 130.6 44.9508 130 44.6508 129L43.9508 125.7Z" fill="#FFB26B" stroke="black" stroke-width="0.5"/>
<path id="Vector_16" d="M51.2496 118.302C51.1496 117.702 51.5496 117.102 52.2496 117.102H57.0496C57.9496 117.102 58.7496 117.702 59.0496 118.702L63.0496 136.102C63.1496 136.702 62.7496 137.302 62.0496 137.302H57.2496C56.3496 137.302 55.5496 136.702 55.2496 135.702L51.2496 118.302Z" fill="#FFB26B" stroke="black" stroke-width="0.5"/>
<path id="Vector_17" d="M45.5498 124.102H67.6498C68.4498 124.102 69.1498 124.702 69.3498 125.502L70.1498 128.802C70.2498 129.302 69.8498 129.702 69.4498 129.702H47.2498C46.4498 129.702 45.7498 129.102 45.5498 128.302L44.7498 125.002C44.6498 124.502 45.0498 124.102 45.5498 124.102Z" fill="black" stroke="black" stroke-width="0.5"/>
<path id="Vector_18" d="M52.8508 116.801H57.6508C58.4508 116.801 59.1508 117.401 59.3508 118.201L63.3508 135.601C63.4508 136.101 63.1508 136.501 62.6508 136.501H57.7508C56.9508 136.501 56.2508 135.901 56.0508 135.101L52.0508 117.701C52.0508 117.201 52.3508 116.801 52.8508 116.801Z" fill="black" stroke="black" stroke-width="0.5"/>
<path id="Vector_19" d="M103.65 106.801C105.15 106.801 106.55 107.801 106.95 109.301H94.9502C94.8502 108.001 95.8502 106.801 97.2502 106.801H103.65Z" fill="#5E3917" stroke="black" stroke-width="0.5"/>
<path id="Vector_20" fill-rule="evenodd" clip-rule="evenodd" d="M11.9492 41.1L46.6492 0.5H63.5492L15.3492 56.9L11.9492 41.1ZM17.4492 66.3L16.2492 61L67.9492 0.5H73.6492L17.4492 66.3Z" fill="#FFB26B"/>
<path id="Vector_21" d="M11.9492 41.1L11.5492 40.8L11.4492 41L11.5492 41.2L11.9492 41.1ZM46.6492 0.5V0H46.4492L46.3492 0.2L46.6492 0.5ZM63.5492 0.5L63.9492 0.8L64.6492 0H63.5492V0.5ZM15.3492 56.9L14.9492 57L15.1492 58L15.8492 57.2L15.3492 56.9ZM17.4492 66.3L16.9492 66.4L17.1492 67.4L17.8492 66.6L17.4492 66.3ZM16.2492 61L15.8492 60.7L15.7492 60.8L15.8492 61H16.2492ZM67.9492 0.5V0H67.7492L67.6492 0.2L67.9492 0.5ZM73.6492 0.5L74.0492 0.8L74.6492 0H73.5492V0.5H73.6492ZM12.3492 41.4L47.0492 0.8L46.2492 0.2L11.6492 40.8L12.3492 41.4ZM46.6492 1H63.5492V0H46.6492V1ZM63.1492 0.2L15.0492 56.6L15.8492 57.2L63.8492 0.8L63.1492 0.2ZM15.8492 56.8L12.4492 41L11.4492 41.2L14.9492 57L15.8492 56.8ZM17.9492 66.2L16.7492 60.9L15.7492 61.1L16.9492 66.4L17.9492 66.2ZM16.6492 61.3L68.2492 0.8L67.4492 0.2L15.9492 60.7L16.6492 61.3ZM67.9492 1H73.6492V0H67.9492V1ZM73.2492 0.2L17.0492 66L17.8492 66.6L73.9492 0.8L73.2492 0.2Z" fill="black"/>
<path id="Vector_22" d="M14.6507 7.80078H149.851C151.151 7.80078 152.251 8.70078 152.551 10.0008L172.551 101.201C172.751 102.301 171.951 103.301 170.851 103.301H35.6507C34.3507 103.301 33.2507 102.401 32.9507 101.101L12.9507 9.90078C12.7507 8.80078 13.5507 7.80078 14.6507 7.80078Z" fill="white" stroke="black" stroke-width="0.5"/>
<path id="Vector_23" d="M147.55 119.699H166.85C171.75 119.699 175.95 123.099 176.95 127.899C178.05 132.999 174.15 137.799 168.95 137.799H149.65C144.75 137.799 140.55 134.399 139.55 129.599C138.45 124.499 142.35 119.699 147.55 119.699Z" fill="white" stroke="black" stroke-width="0.3684"/>
<path id="Vector_24" d="M147.751 121.5H148.051C151.851 121.5 155.051 124.4 155.551 128.2C155.951 131.7 153.151 134.9 149.651 134.9H149.351C145.551 134.9 142.351 132 141.851 128.2C141.451 124.6 144.251 121.5 147.751 121.5Z" fill="black" stroke="black" stroke-width="0.3684"/>
<path id="Vector_25" d="M149.149 120.199H149.449C153.249 120.199 156.449 123.099 156.949 126.899C157.349 130.399 154.549 133.599 151.049 133.599H150.749C146.949 133.599 143.749 130.699 143.249 126.899C142.749 123.299 145.549 120.199 149.149 120.199Z" fill="white" stroke="black" stroke-width="0.3684"/>
<path id="Vector_26" d="M166.949 121.5H167.249C171.049 121.5 174.249 124.4 174.749 128.2C175.149 131.7 172.349 134.9 168.849 134.9H168.549C164.749 134.9 161.549 132 161.049 128.2C160.649 124.6 163.349 121.5 166.949 121.5Z" fill="black" stroke="black" stroke-width="0.3684"/>
<path id="Vector_27" d="M168.249 120.199H168.549C172.349 120.199 175.549 123.099 176.049 126.899C176.449 130.399 173.649 133.599 170.149 133.599H169.749C165.949 133.599 162.749 130.699 162.249 126.899C161.949 123.299 164.649 120.199 168.249 120.199Z" fill="#FFB46C" stroke="black" stroke-width="0.3684"/>
<path id="Vector_28" d="M95.0508 122.802C95.0508 122.402 95.2508 122.102 95.6508 122.102C96.0508 122.102 96.3508 122.402 96.4508 122.802C96.4508 123.202 96.2508 123.502 95.8508 123.502C95.3508 123.502 95.0508 123.202 95.0508 122.802Z" fill="#6B6B6B"/>
<path id="Vector_29" d="M101.85 122.802C101.85 122.402 102.05 122.102 102.45 122.102C102.85 122.102 103.15 122.402 103.25 122.802C103.25 123.202 103.05 123.502 102.65 123.502C102.25 123.502 101.95 123.202 101.85 122.802Z" fill="#6B6B6B"/>
<path id="Vector_30" d="M108.35 122.802C108.35 122.402 108.55 122.102 108.95 122.102C109.35 122.102 109.65 122.402 109.75 122.802C109.75 123.202 109.55 123.502 109.15 123.502C108.75 123.502 108.45 123.202 108.35 122.802Z" fill="#6B6B6B"/>
<path id="Vector_31" d="M114.85 122.802C114.85 122.402 115.05 122.102 115.45 122.102C115.85 122.102 116.15 122.402 116.25 122.802C116.25 123.202 116.05 123.502 115.65 123.502C115.25 123.502 114.95 123.202 114.85 122.802Z" fill="#6B6B6B"/>
<path id="Vector_32" d="M96.0508 127.7C96.0508 127.3 96.2508 127 96.6508 127C97.0508 127 97.3508 127.3 97.4508 127.7C97.4508 128.1 97.2508 128.4 96.8508 128.4C96.3508 128.4 96.0508 128.1 96.0508 127.7Z" fill="#6B6B6B"/>
<path id="Vector_33" d="M102.85 127.7C102.85 127.3 103.05 127 103.45 127C103.85 127 104.15 127.3 104.25 127.7C104.25 128.1 104.05 128.4 103.65 128.4C103.25 128.4 102.95 128.1 102.85 127.7Z" fill="#6B6B6B"/>
<path id="Vector_34" d="M109.35 127.7C109.35 127.3 109.55 127 109.95 127C110.35 127 110.65 127.3 110.75 127.7C110.75 128.1 110.55 128.4 110.15 128.4C109.75 128.4 109.45 128.1 109.35 127.7Z" fill="#6B6B6B"/>
<path id="Vector_35" d="M115.85 127.7C115.85 127.3 116.05 127 116.45 127C116.85 127 117.15 127.3 117.25 127.7C117.25 128.1 117.05 128.4 116.65 128.4C116.25 128.4 115.95 128.1 115.85 127.7Z" fill="#6B6B6B"/>
<path id="Vector_36" d="M97.0508 132.7C97.0508 132.3 97.2508 132 97.6508 132C98.0508 132 98.3508 132.3 98.4508 132.7C98.4508 133.1 98.2508 133.4 97.8508 133.4C97.3508 133.4 97.0508 133.1 97.0508 132.7Z" fill="#6B6B6B"/>
<path id="Vector_37" d="M103.85 132.7C103.85 132.3 104.05 132 104.45 132C104.85 132 105.15 132.3 105.25 132.7C105.25 133.1 105.05 133.4 104.65 133.4C104.25 133.4 103.95 133.1 103.85 132.7Z" fill="#6B6B6B"/>
<path id="Vector_38" d="M110.35 132.7C110.35 132.3 110.55 132 110.95 132C111.35 132 111.65 132.3 111.75 132.7C111.75 133.1 111.55 133.4 111.15 133.4C110.75 133.4 110.45 133.1 110.35 132.7Z" fill="#6B6B6B"/>
<path id="Vector_39" d="M116.85 132.7C116.85 132.3 117.05 132 117.45 132C117.85 132 118.15 132.3 118.25 132.7C118.25 133.1 118.05 133.4 117.65 133.4C117.25 133.4 116.95 133.1 116.85 132.7Z" fill="#6B6B6B"/>
<path id="Vector_40" d="M117.25 102.5L96.25 7" stroke="#4E4E4E" stroke-width="0.5" stroke-dasharray="3 3"/>
<path id="Vector_41" d="M156.25 26.5H17.25" stroke="#4E4E4E" stroke-width="0.5" stroke-dasharray="3 3"/>
<path id="Vector_42" d="M28.5504 80.1992H48.4504C48.6504 80.1992 48.9504 80.3992 48.9504 80.5992L50.2504 86.3992C50.2504 86.5992 50.1504 86.7992 49.9504 86.7992H29.9504C29.7504 86.7992 29.4504 86.5992 29.4504 86.3992L28.1504 80.5992C28.1504 80.3992 28.3504 80.1992 28.5504 80.1992Z" fill="black" stroke="black" stroke-width="0.0225"/>
<path id="Vector_43" d="M47.0504 76H63.9504C64.1504 76 64.4504 76.2 64.4504 76.4L65.7504 82.2C65.7504 82.4 65.6504 82.6 65.4504 82.6H48.4504C48.2504 82.6 47.9504 82.4 47.9504 82.2L46.6504 76.4C46.6504 76.2 46.8504 76 47.0504 76Z" fill="black" stroke="black" stroke-width="0.0225"/>
<path id="Vector_44" d="M129.45 41.5H146.35C146.55 41.5 146.85 41.7 146.85 41.9L148.15 47.7C148.15 47.9 148.05 48.1 147.85 48.1H130.95C130.75 48.1 130.45 47.9 130.45 47.7L129.15 41.9C129.05 41.7 129.25 41.5 129.45 41.5Z" fill="black" stroke="black" stroke-width="0.0225"/>
<path id="Vector_45" d="M114.45 47.5H131.35C131.55 47.5 131.85 47.7 131.85 47.9L133.15 53.7C133.15 53.9 133.05 54.1 132.85 54.1H115.95C115.75 54.1 115.45 53.9 115.45 53.7L114.15 47.9C114.05 47.7 114.25 47.5 114.45 47.5Z" fill="black" stroke="black" stroke-width="0.0225"/>
<path id="Vector_46" d="M62.0493 70H68.4493C68.6493 70 68.9493 70.2 68.9493 70.4L70.2493 76.2C70.2493 76.4 70.1493 76.6 69.9493 76.6H63.5493C63.3493 76.6 63.0493 76.4 63.0493 76.2L61.7493 70.4C61.6493 70.2 61.8493 70 62.0493 70Z" fill="black" stroke="black" stroke-width="0.0225"/>
<path id="Vector_47" d="M91.9496 29.5H98.3496C98.5496 29.5 98.8496 29.7 98.8496 29.9L100.15 35.7C100.15 35.9 100.05 36.1 99.8496 36.1H93.4496C93.2496 36.1 92.9496 35.9 92.9496 35.7L91.6496 29.9C91.5496 29.7 91.7496 29.5 91.9496 29.5Z" fill="black" stroke="black" stroke-width="0.0225"/>
<path id="Vector_48" d="M145.95 35.5H152.35C152.55 35.5 152.85 35.7 152.85 35.9L154.15 41.7C154.15 41.9 154.05 42.1 153.85 42.1H147.45C147.25 42.1 146.95 41.9 146.95 41.7L145.65 35.9C145.55 35.7 145.75 35.5 145.95 35.5Z" fill="black" stroke="black" stroke-width="0.0225"/>
<path id="Vector_49" d="M66.5493 64H72.9493C73.1493 64 73.4493 64.2 73.4493 64.4L74.7493 70.2C74.7493 70.4 74.6493 70.6 74.4493 70.6H68.0493C67.8493 70.6 67.5493 70.4 67.5493 70.2L66.2493 64.4C66.1493 64.2 66.3493 64 66.5493 64Z" fill="black" stroke="black" stroke-width="0.0225"/>
<path id="Vector_50" d="M96.4496 23.5H102.85C103.05 23.5 103.35 23.7 103.35 23.9L104.65 29.7C104.65 29.9 104.55 30.1 104.35 30.1H97.9496C97.7496 30.1 97.4496 29.9 97.4496 29.7L96.1496 23.9C96.0496 23.7 96.2496 23.5 96.4496 23.5Z" fill="black" stroke="black" stroke-width="0.0225"/>
<path id="Vector_51" d="M150.45 29.5H156.85C157.05 29.5 157.35 29.7 157.35 29.9L158.65 35.7C158.65 35.9 158.55 36.1 158.35 36.1H151.95C151.75 36.1 151.45 35.9 151.45 35.7L150.15 29.9C150.05 29.7 150.25 29.5 150.45 29.5Z" fill="black" stroke="black" stroke-width="0.0225"/>
<path id="Vector_52" d="M82.9496 80.5H90.8496C91.0496 80.5 91.3496 80.7 91.3496 80.9L92.6496 86.7C92.6496 86.9 92.5496 87.1 92.3496 87.1H84.4496C84.2496 87.1 83.9496 86.9 83.9496 86.7L82.6496 80.9C82.5496 80.7 82.7496 80.5 82.9496 80.5Z" fill="black" stroke="black" stroke-width="0.0225"/>
<path id="Vector_53" d="M77.95 86.8L73.75 68.9C73.75 68.7 73.85 68.5 74.05 68.5H80.45C80.65 68.5 80.95 68.7 80.95 68.9L85.15 86.8C85.15 87 85.05 87.2 84.85 87.2H78.45C78.15 87.2 77.95 87.1 77.95 86.8Z" fill="black" stroke="black" stroke-width="0.0225"/>
<path id="Vector_54" d="M91.3504 53.8L87.1504 35.9C87.1504 35.7 87.2504 35.5 87.4504 35.5H93.8504C94.0504 35.5 94.3504 35.7 94.3504 35.9L98.5504 53.8C98.5504 54 98.4504 54.2 98.2504 54.2H91.8504C91.6504 54.2 91.3504 54.1 91.3504 53.8Z" fill="black" stroke="black" stroke-width="0.0225"/>
<path id="Vector_55" d="M107.85 47.8L103.65 29.9C103.65 29.7 103.75 29.5 103.95 29.5H110.35C110.55 29.5 110.85 29.7 110.85 29.9L115.05 47.8C115.05 48 114.95 48.2 114.75 48.2H108.35C108.15 48.2 107.85 48.1 107.85 47.8Z" fill="black" stroke="black" stroke-width="0.0225"/>
<g id="Vector_56">
<path d="M91.3496 86.8008L84.1496 52.7008C84.1496 52.5008 84.2496 52.3008 84.5496 52.3008H90.9496C91.2496 52.3008 91.4496 52.5008 91.4496 52.7008M91.3496 86.8008C91.4496 87.0008 91.6496 87.2008 91.8496 87.2008H98.2496C98.4496 87.2008 98.6496 87.0008 98.6496 86.8008L91.4496 52.7008M91.3496 52.8008L98.5496 86.9008C98.5496 87.1008 98.4496 87.3008 98.2496 87.3008H91.8496C91.6496 87.3008 91.3496 87.1008 91.3496 86.9008M91.3496 52.8008C91.2496 52.6008 91.0496 52.4008 90.8496 52.4008H84.4496C84.2496 52.4008 84.0496 52.6008 84.1496 52.8008L91.3496 86.9008" fill="black"/>
<path d="M91.3496 86.8008L84.1496 52.7008C84.1496 52.5008 84.2496 52.3008 84.5496 52.3008H90.9496C91.2496 52.3008 91.4496 52.5008 91.4496 52.7008L98.6496 86.8008C98.6496 87.0008 98.4496 87.2008 98.2496 87.2008H91.8496C91.6496 87.2008 91.4496 87.0008 91.3496 86.8008ZM91.3496 52.8008L98.5496 86.9008C98.5496 87.1008 98.4496 87.3008 98.2496 87.3008H91.8496C91.6496 87.3008 91.3496 87.1008 91.3496 86.9008L84.1496 52.8008C84.0496 52.6008 84.2496 52.4008 84.4496 52.4008H90.8496C91.0496 52.4008 91.2496 52.6008 91.3496 52.8008Z" stroke="black" stroke-width="0.0225"/>
</g>
<path id="Vector_57" d="M175.05 102.801C175.05 102.801 178.15 105.201 177.85 109.001C177.55 112.701 175.75 113.701 171.15 115.101" stroke="black" stroke-width="0.55" stroke-miterlimit="10" stroke-linecap="round" stroke-linejoin="round"/>

<!-- 可爱的现代风格角色 - 适配背景色调 -->
<!-- 主体 -->
<circle cx="155" cy="95" r="20" fill="#FF9500" stroke="#2D3436" stroke-width="2"/>
<!-- 渐变效果 -->
<circle cx="155" cy="95" r="18" fill="url(#characterGradient)" opacity="0.8"/>
<!-- 眼睛 -->
<circle cx="148" cy="90" r="4" fill="#FFFFFF"/>
<circle cx="162" cy="90" r="4" fill="#FFFFFF"/>
<circle cx="148" cy="90" r="2.5" fill="#2D3436"/>
<circle cx="162" cy="90" r="2.5" fill="#2D3436"/>
<!-- 眼睛高光 -->
<circle cx="149" cy="88.5" r="1" fill="#FFFFFF"/>
<circle cx="163" cy="88.5" r="1" fill="#FFFFFF"/>
<!-- 腮红 -->
<ellipse cx="140" cy="98" rx="3" ry="2" fill="#FF6B47" opacity="0.6"/>
<ellipse cx="170" cy="98" rx="3" ry="2" fill="#FF6B47" opacity="0.6"/>
<!-- 嘴巴 -->
<path d="M150 102 Q155 106 160 102" stroke="#2D3436" stroke-width="2" fill="none" stroke-linecap="round"/>
<!-- 装饰元素 -->
<circle cx="135" cy="80" r="3" fill="#FFB26B"/>
<circle cx="175" cy="80" r="2.5" fill="#FDCB6E"/>
<circle cx="130" cy="110" r="2" fill="#D4522A"/>
<circle cx="180" cy="110" r="2.5" fill="#FF8C42"/>
<!-- 光环效果 -->
<circle cx="155" cy="95" r="25" fill="none" stroke="#FFB26B" stroke-width="1" opacity="0.4"/>
<circle cx="155" cy="95" r="28" fill="none" stroke="#FDCB6E" stroke-width="0.5" opacity="0.3"/>

<!-- 定义渐变 -->
<defs>
  <radialGradient id="characterGradient" cx="0.3" cy="0.3" r="0.8">
    <stop offset="0%" stop-color="#FFA726"/>
    <stop offset="100%" stop-color="#FF9500"/>
  </radialGradient>
</defs>
<path id="Vector_92" d="M107.75 148L116.85 148.1C117.05 148.1 117.25 148.3 117.35 148.5L119.55 156.5C120.05 159.3 117.95 159.6 116.65 159.6L108.65 159.9C107.45 160 107.15 159 107.05 158.5L105.25 150.1C105.25 148.9 106.75 148 107.75 148Z" fill="white" stroke="black" stroke-width="0.5"/>
<path id="Vector_93" d="M119.55 156.5L110.55 156.9C109.75 156.9 107.85 157.3 107.15 158.5" stroke="black" stroke-width="0.5"/>
<path id="Vector_94" d="M270.15 188.901C269.25 188.201 268.15 187.801 266.95 187.801L232.95 187.901C232.15 187.901 231.35 188.401 231.05 189.201L218.85 223.801C218.55 224.601 218.85 225.501 219.45 226.001L245.85 247.401C246.75 248.101 247.85 248.501 249.05 248.501L283.05 248.401C283.85 248.401 284.65 247.901 284.95 247.101L297.15 212.501C297.45 211.701 297.15 210.801 296.55 210.301L270.15 188.901Z" fill="#333333"/>
<path id="Vector_95" d="M261.549 211H294.949C296.149 211 297.049 212.2 296.549 213.3L284.749 247.1C284.549 247.8 283.849 248.3 283.049 248.3H249.649C248.449 248.3 247.549 247.1 248.049 246L259.949 212.3C260.149 211.5 260.849 211 261.549 211Z" fill="#FFF7EF" stroke="#333333" stroke-width="0.5"/>
<path id="Vector_96" d="M259.851 210.398L233.851 189.498C232.951 188.698 231.551 189.098 231.151 190.298L219.251 223.998C219.051 224.698 219.251 225.498 219.851 225.898L245.851 246.798C246.751 247.598 248.151 247.198 248.551 245.998L260.451 212.298C260.651 211.598 260.451 210.898 259.851 210.398Z" fill="#FFB26B" stroke="#333333" stroke-width="0.5"/>
<path id="Vector_97" d="M234.449 188.202L267.749 188.102C268.349 188.102 269.049 188.302 269.449 188.702L295.249 209.702C295.749 210.102 295.449 211.002 294.749 211.002L261.449 211.102C260.849 211.102 260.149 210.902 259.749 210.502L233.949 189.502C233.449 189.102 233.749 188.202 234.449 188.202Z" fill="#FFF7EF" stroke="#333333" stroke-width="0.5"/>
<path id="Vector_98" d="M283.349 151.702C282.449 151.002 281.349 150.602 280.149 150.602L246.149 150.702C245.349 150.702 244.549 151.202 244.249 152.002L232.049 186.602C231.749 187.402 232.049 188.302 232.649 188.802L259.049 210.202C259.949 210.902 261.049 211.302 262.249 211.302L296.249 211.202C297.049 211.202 297.849 210.702 298.149 209.902L310.349 175.302C310.649 174.502 310.349 173.602 309.749 173.102L283.349 151.702Z" fill="#333333"/>
<path id="Vector_99" d="M274.751 173.801H308.151C309.351 173.801 310.151 175.001 309.751 176.101L297.851 209.801C297.651 210.501 296.951 211.001 296.151 211.001H262.751C261.551 211.001 260.651 209.801 261.151 208.701L273.051 175.001C273.351 174.201 273.951 173.801 274.751 173.801Z" fill="#FFF7EF" stroke="#333333" stroke-width="0.5"/>
<path id="Vector_100" d="M272.95 173.101L246.95 152.201C246.05 151.401 244.65 151.801 244.25 153.001L232.35 186.701C232.15 187.401 232.35 188.201 232.95 188.601L258.95 209.501C259.85 210.301 261.25 209.901 261.65 208.701L273.55 175.001C273.75 174.401 273.55 173.601 272.95 173.101Z" fill="#FFB26B" stroke="#333333" stroke-width="0.5"/>
<path id="Vector_101" d="M247.549 150.901L280.849 150.801C281.449 150.801 282.149 151.001 282.549 151.401L308.349 172.401C308.849 172.801 308.549 173.701 307.849 173.701L274.549 173.801C273.949 173.801 273.249 173.601 272.849 173.201L247.049 152.201C246.549 151.801 246.849 150.901 247.549 150.901Z" fill="#FFF7EF" stroke="#333333" stroke-width="0.5"/>
<path id="Vector_102" d="M296.349 114.901C295.449 114.201 294.349 113.801 293.149 113.801L259.149 113.901C258.349 113.901 257.549 114.401 257.249 115.201L245.049 149.801C244.749 150.601 245.049 151.501 245.649 152.001L272.049 173.401C272.949 174.101 274.049 174.501 275.249 174.501L309.249 174.401C310.049 174.401 310.849 173.901 311.149 173.101L323.349 138.501C323.649 137.701 323.349 136.801 322.749 136.301L296.349 114.901Z" fill="#333333"/>
<path id="Vector_103" d="M287.751 137H321.151C322.351 137 323.251 138.2 322.751 139.3L310.851 173C310.651 173.7 309.951 174.2 309.151 174.2H275.751C274.551 174.2 273.751 173 274.151 171.9L286.051 138.2C286.351 137.4 286.951 137 287.751 137Z" fill="#FFF7EF" stroke="#333333" stroke-width="0.5"/>
<path id="Vector_104" d="M285.95 136.398L259.95 115.498C259.05 114.698 257.65 115.098 257.25 116.298L245.35 149.998C245.15 150.698 245.35 151.498 245.95 151.898L271.95 172.798C272.85 173.598 274.25 173.198 274.65 171.998L286.55 138.298C286.75 137.598 286.55 136.798 285.95 136.398Z" fill="#FFB26B" stroke="#333333" stroke-width="0.5"/>
<path id="Vector_105" d="M260.549 114.202L293.849 114.102C294.449 114.102 295.149 114.302 295.549 114.702L321.349 135.702C321.849 136.102 321.549 137.002 320.849 137.002L287.549 137.102C286.949 137.102 286.249 136.902 285.849 136.502L260.049 115.502C259.549 115.102 259.849 114.202 260.549 114.202Z" fill="#FFF7EF" stroke="#333333" stroke-width="0.5"/>
<path id="Vector_106" d="M299.15 211.901C298.25 211.201 297.15 210.801 295.95 210.801L261.95 210.901C261.15 210.901 260.35 211.401 260.05 212.201L247.85 246.801C247.55 247.601 247.85 248.501 248.45 249.001L274.85 270.401C275.75 271.101 276.85 271.501 278.05 271.501L312.05 271.401C312.85 271.401 313.65 270.901 313.95 270.101L326.15 235.501C326.45 234.701 326.15 233.801 325.55 233.301L299.15 211.901Z" fill="#333333"/>
<path id="Vector_107" d="M290.549 234H323.949C325.149 234 326.049 235.2 325.549 236.3L313.749 270C313.549 270.7 312.849 271.2 312.049 271.2H278.649C277.449 271.2 276.549 270 277.049 268.9L288.949 235.2C289.149 234.4 289.849 234 290.549 234Z" fill="#FFF7EF" stroke="#333333" stroke-width="0.5"/>
<path id="Vector_108" d="M288.851 233.398L262.851 212.498C261.951 211.698 260.551 212.098 260.151 213.298L248.251 246.998C248.051 247.698 248.251 248.498 248.851 248.898L274.851 269.798C275.751 270.598 277.151 270.198 277.551 268.998L289.451 235.298C289.651 234.598 289.451 233.798 288.851 233.398Z" fill="#FFB26B" stroke="#333333" stroke-width="0.5"/>
<path id="Vector_109" d="M263.449 211.2L296.749 211C297.349 211 298.049 211.2 298.449 211.6L324.249 232.6C324.749 233 324.449 233.9 323.749 233.9L290.449 234C289.849 234 289.149 233.8 288.749 233.4L262.949 212.4C262.449 212 262.749 211.2 263.449 211.2Z" fill="#FFF7EF" stroke="#333333" stroke-width="0.5"/>
<path id="Vector_110" d="M312.349 174.702C311.449 174.002 310.349 173.602 309.149 173.602L275.149 173.702C274.349 173.702 273.549 174.202 273.249 175.002L261.049 209.602C260.749 210.402 261.049 211.302 261.649 211.802L288.049 233.202C288.949 233.902 290.049 234.302 291.249 234.302L325.249 234.202C326.049 234.202 326.849 233.702 327.149 232.902L339.349 198.302C339.649 197.502 339.349 196.602 338.749 196.102L312.349 174.702Z" fill="#333333"/>
<path id="Vector_111" d="M303.751 196.699H337.151C338.351 196.699 339.251 197.899 338.751 198.999L326.851 232.699C326.651 233.399 325.951 233.899 325.151 233.899H291.751C290.551 233.899 289.651 232.699 290.151 231.599L302.051 197.899C302.351 197.199 302.951 196.699 303.751 196.699Z" fill="#FFF7EF" stroke="#333333" stroke-width="0.5"/>
<path id="Vector_112" d="M301.95 196.101L275.95 175.201C275.05 174.401 273.65 174.801 273.25 176.001L261.35 209.701C261.15 210.401 261.35 211.201 261.95 211.601L287.95 232.501C288.85 233.301 290.25 232.901 290.65 231.701L302.55 198.001C302.75 197.401 302.55 196.601 301.95 196.101Z" fill="#FFB26B" stroke="#333333" stroke-width="0.5"/>
<path id="Vector_113" d="M276.549 173.901L309.849 173.801C310.449 173.801 311.149 174.001 311.549 174.401L337.349 195.401C337.849 195.801 337.549 196.701 336.849 196.701L303.549 196.801C302.949 196.801 302.249 196.601 301.849 196.201L276.049 175.201C275.549 174.801 275.849 173.901 276.549 173.901Z" fill="#FFF7EF" stroke="#333333" stroke-width="0.5"/>
<path id="Vector_114" d="M325.349 137.901C324.449 137.201 323.349 136.801 322.149 136.801L288.149 136.901C287.349 136.901 286.549 137.401 286.249 138.201L274.049 172.801C273.749 173.601 274.049 174.501 274.649 175.001L301.049 196.401C301.949 197.101 303.049 197.501 304.249 197.501L338.249 197.401C339.049 197.401 339.849 196.901 340.149 196.101L352.349 161.501C352.649 160.701 352.349 159.801 351.749 159.301L325.349 137.901Z" fill="#333333"/>
<path id="Vector_115" d="M316.751 159.898H350.151C351.351 159.898 352.251 161.098 351.751 162.198L339.851 195.998C339.651 196.698 338.951 197.198 338.151 197.198H304.751C303.551 197.198 302.751 195.998 303.151 194.898L315.051 161.198C315.351 160.398 315.951 159.898 316.751 159.898Z" fill="#FFF7EF" stroke="#333333" stroke-width="0.5"/>
<path id="Vector_116" d="M314.95 159.301L288.95 138.401C288.05 137.601 286.65 138.001 286.25 139.201L274.35 172.901C274.15 173.601 274.35 174.401 274.95 174.801L300.95 195.701C301.85 196.501 303.25 196.101 303.65 194.901L315.55 161.201C315.75 160.601 315.55 159.801 314.95 159.301Z" fill="#333333" stroke="#333333" stroke-width="0.5"/>
<path id="Vector_117" d="M289.549 137.1L322.849 137C323.449 137 324.149 137.2 324.549 137.6L350.349 158.6C350.849 159 350.549 159.9 349.849 159.9L316.549 160C315.949 160 315.249 159.8 314.849 159.4L289.049 138.4C288.549 138 288.849 137.1 289.549 137.1Z" fill="#FFF7EF" stroke="#333333" stroke-width="0.5"/>
<path id="Vector_118" d="M328.15 234.901C327.25 234.201 326.15 233.801 324.95 233.801L290.95 233.901C290.15 233.901 289.35 234.401 289.05 235.201L276.85 269.801C276.55 270.601 276.85 271.501 277.45 272.001L303.85 293.401C304.75 294.101 305.85 294.501 307.05 294.501L341.05 294.401C341.85 294.401 342.65 293.901 342.95 293.101L355.15 258.501C355.45 257.701 355.15 256.801 354.55 256.301L328.15 234.901Z" fill="#333333"/>
<path id="Vector_119" d="M319.549 256.898H352.949C354.149 256.898 355.049 258.098 354.549 259.198L342.749 292.998C342.549 293.698 341.849 294.198 341.049 294.198H307.649C306.449 294.198 305.649 292.998 306.049 291.898L317.949 258.198C318.149 257.398 318.849 256.898 319.549 256.898Z" fill="#FFF7EF" stroke="#333333" stroke-width="0.5"/>
<path id="Vector_120" d="M317.851 256.301L291.851 235.401C290.951 234.601 289.551 235.001 289.151 236.201L277.251 269.901C277.051 270.601 277.251 271.401 277.851 271.801L303.851 292.701C304.751 293.501 306.151 293.101 306.551 291.901L318.451 258.201C318.651 257.601 318.451 256.801 317.851 256.301Z" fill="#FFB26B" stroke="#333333" stroke-width="0.5"/>
<path id="Vector_121" d="M292.449 234.1L325.749 234C326.349 234 327.049 234.2 327.449 234.6L353.249 255.6C353.749 256 353.449 256.9 352.749 256.9L319.449 257C318.849 257 318.149 256.8 317.749 256.4L291.949 235.4C291.449 235 291.749 234.1 292.449 234.1Z" fill="#FFF7EF" stroke="#333333" stroke-width="0.5"/>
<path id="Vector_122" d="M341.349 197.6C340.449 196.9 339.349 196.5 338.149 196.5L304.149 196.6C303.349 196.6 302.549 197.1 302.249 197.9L290.049 232.5C289.749 233.3 290.049 234.2 290.649 234.7L317.049 256.1C317.949 256.8 319.049 257.2 320.249 257.2L354.249 257.1C355.049 257.1 355.849 256.6 356.149 255.8L368.349 221.2C368.649 220.4 368.349 219.5 367.749 219L341.349 197.6Z" fill="#333333"/>
<path id="Vector_123" d="M332.751 219.699H366.151C367.351 219.699 368.251 220.899 367.751 221.999L355.851 255.699C355.651 256.399 354.951 256.899 354.151 256.899H320.751C319.551 256.899 318.651 255.699 319.151 254.599L331.051 220.899C331.351 220.199 331.951 219.699 332.751 219.699Z" fill="#FFF7EF" stroke="#333333" stroke-width="0.5"/>
<path id="Vector_124" d="M331.05 219.101L305.05 198.201C304.15 197.401 302.75 197.801 302.35 199.001L290.45 232.701C290.25 233.401 290.45 234.201 291.05 234.601L317.05 255.501C317.95 256.301 319.35 255.901 319.75 254.701L331.65 221.001C331.85 220.301 331.55 219.501 331.05 219.101Z" fill="#282018" stroke="#333333" stroke-width="0.5"/>
<path id="Vector_125" d="M305.549 196.901L338.849 196.801C339.449 196.801 340.149 197.001 340.549 197.401L366.349 218.401C366.849 218.801 366.549 219.701 365.849 219.701L332.549 219.801C331.949 219.801 331.249 219.601 330.849 219.201L305.049 198.201C304.549 197.801 304.849 196.901 305.549 196.901Z" fill="#FFF7EF" stroke="#333333" stroke-width="0.5"/>
<path id="Vector_126" d="M354.349 160.901C353.449 160.201 352.349 159.801 351.149 159.801L317.149 159.901C316.349 159.901 315.549 160.401 315.249 161.201L303.049 195.801C302.749 196.601 303.049 197.501 303.649 198.001L330.049 219.401C330.949 220.101 332.049 220.501 333.249 220.501L367.249 220.401C368.049 220.401 368.849 219.901 369.149 219.101L381.349 184.501C381.649 183.701 381.349 182.801 380.749 182.301L354.349 160.901Z" fill="#333333"/>
<path id="Vector_127" d="M345.751 182.898H379.151C380.351 182.898 381.251 184.098 380.751 185.198L368.851 218.998C368.651 219.698 367.951 220.198 367.151 220.198H333.751C332.551 220.198 331.751 218.998 332.151 217.898L344.051 184.198C344.351 183.398 344.951 182.898 345.751 182.898Z" fill="#FFF7EF" stroke="#333333" stroke-width="0.5"/>
<path id="Vector_128" d="M343.95 182.301L317.95 161.401C317.05 160.601 315.65 161.001 315.25 162.201L303.35 195.901C303.15 196.601 303.35 197.401 303.95 197.801L329.95 218.701C330.85 219.501 332.25 219.101 332.65 217.901L344.55 184.201C344.75 183.601 344.55 182.801 343.95 182.301Z" fill="#FFB26B" stroke="#333333" stroke-width="0.5"/>
<path id="Vector_129" d="M318.549 160.1L351.849 160C352.449 160 353.149 160.2 353.549 160.6L379.349 181.6C379.849 182 379.549 182.9 378.849 182.9L345.549 183C344.949 183 344.249 182.8 343.849 182.4L318.049 161.4C317.549 161 317.849 160.1 318.549 160.1Z" fill="#FFF7EF" stroke="#333333" stroke-width="0.5"/>
<path id="Vector_130" d="M234.15 188.901C233.25 188.201 232.15 187.801 230.95 187.801L196.95 187.901C196.15 187.901 195.35 188.401 195.05 189.201L182.85 223.801C182.55 224.601 182.85 225.501 183.45 226.001L209.85 247.401C210.75 248.101 211.85 248.501 213.05 248.501L247.05 248.401C247.85 248.401 248.65 247.901 248.95 247.101L261.15 212.501C261.45 211.701 261.15 210.801 260.55 210.301L234.15 188.901Z" fill="#333333"/>
<path id="Vector_131" d="M225.55 211H258.95C260.15 211 261.05 212.2 260.55 213.3L248.65 247C248.45 247.7 247.75 248.2 246.95 248.2H213.55C212.35 248.2 211.45 247 211.95 245.9L223.85 212.2C224.15 211.5 224.75 211 225.55 211Z" fill="#FFF7EF" stroke="#333333" stroke-width="0.5"/>
<path id="Vector_132" d="M223.749 210.398L197.749 189.498C196.849 188.698 195.449 189.098 195.049 190.298L183.149 223.998C182.949 224.698 183.149 225.498 183.749 225.898L209.749 246.798C210.649 247.598 212.049 247.198 212.449 245.998L224.349 212.298C224.549 211.598 224.349 210.898 223.749 210.398Z" fill="#FFB26B" stroke="#333333" stroke-width="0.5"/>
<path id="Vector_133" d="M198.35 188.202L231.65 188.102C232.25 188.102 232.95 188.302 233.35 188.702L259.15 209.702C259.65 210.102 259.35 211.002 258.65 211.002L225.35 211.102C224.75 211.102 224.05 210.902 223.65 210.502L197.85 189.502C197.35 189.102 197.65 188.202 198.35 188.202Z" fill="#FFF7EF" stroke="#333333" stroke-width="0.5"/>
<path id="Vector_134" d="M247.25 151.702C246.35 151.002 245.25 150.602 244.05 150.602L210.05 150.702C209.25 150.702 208.45 151.202 208.15 152.002L195.95 186.602C195.65 187.402 195.95 188.302 196.55 188.802L222.95 210.202C223.85 210.902 224.95 211.302 226.15 211.302L260.15 211.202C260.95 211.202 261.75 210.702 262.05 209.902L274.25 175.302C274.55 174.502 274.25 173.602 273.65 173.102L247.25 151.702Z" fill="#333333"/>
<path id="Vector_135" d="M238.649 173.801H272.049C273.249 173.801 274.049 175.001 273.649 176.101L261.749 209.801C261.549 210.501 260.849 211.001 260.049 211.001H226.649C225.449 211.001 224.549 209.801 225.049 208.701L236.949 175.001C237.249 174.201 237.949 173.801 238.649 173.801Z" fill="#FFF7EF" stroke="#333333" stroke-width="0.5"/>
<path id="Vector_136" d="M236.95 173.101L210.95 152.201C210.05 151.401 208.65 151.801 208.25 153.001L196.35 186.701C196.15 187.401 196.35 188.201 196.95 188.601L222.95 209.501C223.85 210.301 225.25 209.901 225.65 208.701L237.55 175.001C237.75 174.401 237.55 173.601 236.95 173.101Z" fill="#FFB26B" stroke="#333333" stroke-width="0.5"/>
<path id="Vector_137" d="M211.551 150.901L244.851 150.801C245.451 150.801 246.151 151.001 246.551 151.401L272.351 172.401C272.851 172.801 272.551 173.701 271.851 173.701L238.551 173.801C237.951 173.801 237.251 173.601 236.851 173.201L211.051 152.201C210.451 151.801 210.851 150.901 211.551 150.901Z" fill="#FFF7EF" stroke="#333333" stroke-width="0.5"/>
<path id="Vector_138" d="M260.25 114.901C259.35 114.201 258.25 113.801 257.05 113.801L223.05 113.901C222.25 113.901 221.45 114.401 221.15 115.201L208.95 149.801C208.65 150.601 208.95 151.501 209.55 152.001L235.95 173.401C236.85 174.101 237.95 174.501 239.15 174.501L273.15 174.401C273.95 174.401 274.75 173.901 275.05 173.101L287.25 138.501C287.55 137.701 287.25 136.801 286.65 136.301L260.25 114.901Z" fill="#333333"/>
<path id="Vector_139" d="M251.649 137H285.049C286.249 137 287.149 138.2 286.649 139.3L274.749 173.1C274.549 173.8 273.849 174.3 273.049 174.3H239.649C238.449 174.3 237.549 173.1 238.049 172L249.949 138.3C250.249 137.4 250.949 137 251.649 137Z" fill="black" stroke="#333333" stroke-width="0.5"/>
<path id="Vector_140" d="M249.95 136.398L223.95 115.498C223.05 114.698 221.65 115.098 221.25 116.298L209.35 149.998C209.15 150.698 209.35 151.498 209.95 151.898L235.95 172.798C236.85 173.598 238.25 173.198 238.65 171.998L250.55 138.298C250.75 137.598 250.45 136.798 249.95 136.398Z" fill="#FFB26B" stroke="#333333" stroke-width="0.5"/>
<path id="Vector_141" d="M224.55 114.2L257.75 114C258.35 114 259.05 114.2 259.45 114.6L285.25 135.6C285.75 136 285.45 136.9 284.75 136.9L251.45 137C250.85 137 250.15 136.8 249.75 136.4L223.95 115.4C223.45 115.1 223.75 114.2 224.55 114.2Z" fill="#FFF7EF" stroke="#333333" stroke-width="0.5"/>
<path id="Vector_142" d="M263.15 211.901C262.25 211.201 261.15 210.801 259.95 210.801L225.95 210.901C225.15 210.901 224.35 211.401 224.05 212.201L211.85 246.801C211.55 247.601 211.85 248.501 212.45 249.001L238.85 270.401C239.75 271.101 240.85 271.501 242.05 271.501L276.05 271.401C276.85 271.401 277.65 270.901 277.95 270.101L290.15 235.501C290.45 234.701 290.15 233.801 289.55 233.301L263.15 211.901Z" fill="#333333"/>
<path id="Vector_143" d="M254.55 234H287.95C289.15 234 290.05 235.2 289.55 236.3L277.65 270C277.45 270.7 276.75 271.2 275.95 271.2H242.55C241.35 271.2 240.45 270 240.95 268.9L252.85 235.2C253.15 234.4 253.75 234 254.55 234Z" fill="#FFF7EF" stroke="#333333" stroke-width="0.5"/>
<path id="Vector_144" d="M252.749 233.398L226.749 212.498C225.849 211.698 224.449 212.098 224.049 213.298L212.149 246.998C211.949 247.698 212.149 248.498 212.749 248.898L238.749 269.798C239.649 270.598 241.049 270.198 241.449 268.998L253.349 235.298C253.549 234.598 253.349 233.798 252.749 233.398Z" fill="#FFB26B" stroke="#333333" stroke-width="0.5"/>
<path id="Vector_145" d="M227.35 211.202L260.65 211.102C261.25 211.102 261.95 211.302 262.35 211.702L288.15 232.702C288.65 233.102 288.35 234.002 287.65 234.002L254.35 234.102C253.75 234.102 253.05 233.902 252.65 233.502L226.85 212.502C226.35 212.002 226.65 211.202 227.35 211.202Z" fill="#FFF7EF" stroke="#333333" stroke-width="0.5"/>
<path id="Vector_146" d="M276.25 174.702C275.35 174.002 274.25 173.602 273.05 173.602L239.05 173.702C238.25 173.702 237.45 174.202 237.15 175.002L224.95 209.602C224.65 210.402 224.95 211.302 225.55 211.802L251.95 233.202C252.85 233.902 253.95 234.302 255.15 234.302L289.15 234.202C289.95 234.202 290.75 233.702 291.05 232.902L303.25 198.302C303.55 197.502 303.25 196.602 302.65 196.102L276.25 174.702Z" fill="#333333"/>
<path id="Vector_147" d="M267.649 196.699H301.049C302.249 196.699 303.049 197.899 302.649 198.999L290.749 232.699C290.549 233.399 289.849 233.899 289.049 233.899H255.649C254.449 233.899 253.549 232.699 254.049 231.599L265.949 197.899C266.249 197.199 266.949 196.699 267.649 196.699Z" fill="#282018" stroke="#333333" stroke-width="0.5"/>
<path id="Vector_148" d="M265.95 196.101L239.95 175.201C239.05 174.401 237.65 174.801 237.25 176.001L225.35 209.701C225.15 210.401 225.35 211.201 225.95 211.601L251.95 232.501C252.85 233.301 254.25 232.901 254.65 231.701L266.55 198.001C266.75 197.401 266.55 196.601 265.95 196.101Z" fill="#FFB26B" stroke="#333333" stroke-width="0.5"/>
<path id="Vector_149" d="M240.549 173.901L273.849 173.801C274.449 173.801 275.149 174.001 275.549 174.401L301.349 195.401C301.849 195.801 301.549 196.701 300.849 196.701L267.549 196.801C266.949 196.801 266.249 196.601 265.849 196.201L240.049 175.201C239.549 174.801 239.849 173.901 240.549 173.901Z" fill="#FFF7EF" stroke="#333333" stroke-width="0.5"/>
<path id="Vector_150" d="M292.15 234.901C291.25 234.201 290.15 233.801 288.95 233.801L254.95 233.901C254.15 233.901 253.35 234.401 253.05 235.201L240.85 269.801C240.55 270.601 240.85 271.501 241.45 272.001L267.85 293.401C268.75 294.101 269.85 294.501 271.05 294.501L305.05 294.401C305.85 294.401 306.65 293.901 306.95 293.101L319.15 258.501C319.45 257.701 319.15 256.801 318.55 256.301L292.15 234.901Z" fill="#333333"/>
<path id="Vector_151" d="M283.55 256.898H316.95C318.15 256.898 319.05 258.098 318.55 259.198L306.65 292.998C306.45 293.698 305.75 294.198 304.95 294.198H271.55C270.35 294.198 269.45 292.998 269.95 291.898L281.85 258.198C282.15 257.398 282.75 256.898 283.55 256.898Z" fill="#FFF7EF" stroke="#333333" stroke-width="0.5"/>
<path id="Vector_152" d="M281.749 256.301L255.749 235.401C254.849 234.601 253.449 235.001 253.049 236.201L241.149 269.901C240.949 270.601 241.149 271.401 241.749 271.801L267.749 292.701C268.649 293.501 270.049 293.101 270.449 291.901L282.349 258.201C282.549 257.601 282.349 256.801 281.749 256.301Z" fill="#FFB26B" stroke="#333333" stroke-width="0.5"/>
<path id="Vector_153" d="M256.35 234.1L289.65 234C290.25 234 290.95 234.2 291.35 234.6L317.15 255.6C317.65 256 317.35 256.9 316.65 256.9L283.35 257C282.75 257 282.05 256.8 281.65 256.4L255.85 235.4C255.35 235 255.65 234.1 256.35 234.1Z" fill="#FFF7EF" stroke="#333333" stroke-width="0.5"/>
<path id="Vector_154" d="M198.051 188.901C197.151 188.201 196.051 187.801 194.851 187.801L160.851 187.901C160.051 187.901 159.25 188.401 158.95 189.201L146.751 223.801C146.451 224.601 146.751 225.501 147.351 226.001L173.751 247.401C174.651 248.101 175.75 248.501 176.951 248.501L210.951 248.401C211.751 248.401 212.551 247.901 212.851 247.101L225.051 212.501C225.351 211.701 225.05 210.801 224.451 210.301L198.051 188.901Z" fill="#333333"/>
<path id="Vector_155" d="M189.45 211H222.85C224.05 211 224.95 212.2 224.45 213.3L212.55 247C212.35 247.7 211.65 248.2 210.85 248.2H177.45C176.25 248.2 175.35 247 175.85 245.9L187.75 212.2C188.05 211.5 188.75 211 189.45 211Z" fill="#FFF7EF" stroke="#333333" stroke-width="0.5"/>
<path id="Vector_156" d="M187.749 210.398L161.749 189.498C160.849 188.698 159.449 189.098 159.049 190.298L147.149 223.998C146.949 224.698 147.149 225.498 147.749 225.898L173.749 246.798C174.649 247.598 176.049 247.198 176.449 245.998L188.349 212.298C188.549 211.598 188.349 210.798 187.749 210.398Z" fill="#FFB26B" stroke="#333333" stroke-width="0.5"/>
<path id="Vector_157" d="M162.349 188.202L195.649 188.102C196.249 188.102 196.949 188.302 197.349 188.702L223.149 209.702C223.649 210.102 223.349 211.002 222.649 211.002L189.349 211.102C188.749 211.102 188.049 210.902 187.649 210.502L161.849 189.502C161.249 189.102 161.649 188.202 162.349 188.202Z" fill="#FFF7EF" stroke="#333333" stroke-width="0.5"/>
<path id="Vector_158" d="M211.25 151.702C210.35 151.002 209.25 150.602 208.05 150.602L174.05 150.702C173.25 150.702 172.45 151.202 172.15 152.002L159.95 186.602C159.65 187.402 159.95 188.302 160.55 188.802L186.95 210.202C187.85 210.902 188.95 211.302 190.15 211.302L224.15 211.202C224.95 211.202 225.75 210.702 226.05 209.902L238.25 175.302C238.55 174.502 238.25 173.602 237.65 173.102L211.25 151.702Z" fill="#333333"/>
<path id="Vector_159" d="M202.649 173.699H236.049C237.249 173.699 238.149 174.899 237.649 175.999L225.749 209.799C225.549 210.499 224.849 210.999 224.049 210.999H190.649C189.449 210.999 188.549 209.799 189.049 208.699L200.949 174.999C201.249 174.199 201.849 173.699 202.649 173.699Z" fill="#FFF7EF" stroke="#333333" stroke-width="0.5"/>
<path id="Vector_160" d="M200.851 173.101L174.851 152.201C173.951 151.401 172.551 151.801 172.151 153.001L160.251 186.701C160.051 187.401 160.251 188.201 160.851 188.601L186.851 209.501C187.751 210.301 189.151 209.901 189.551 208.701L201.451 175.001C201.651 174.401 201.451 173.601 200.851 173.101Z" fill="#FFB26B" stroke="#333333" stroke-width="0.5"/>
<path id="Vector_161" d="M175.449 150.901L208.749 150.801C209.349 150.801 210.049 151.001 210.449 151.401L236.249 172.401C236.749 172.801 236.449 173.701 235.749 173.701L202.449 173.801C201.849 173.801 201.149 173.601 200.749 173.201L174.949 152.201C174.449 151.801 174.749 150.901 175.449 150.901Z" fill="#FFF7EF" stroke="#333333" stroke-width="0.5"/>
<path id="Vector_162" d="M224.15 114.901C223.25 114.201 222.15 113.801 220.95 113.801L186.95 113.901C186.15 113.901 185.35 114.401 185.05 115.201L172.85 149.801C172.55 150.601 172.85 151.501 173.45 152.001L199.85 173.401C200.75 174.101 201.85 174.501 203.05 174.501L237.05 174.401C237.85 174.401 238.65 173.901 238.95 173.101L251.15 138.501C251.45 137.701 251.15 136.801 250.55 136.301L224.15 114.901Z" fill="#333333"/>
<path id="Vector_163" d="M215.549 137H248.949C250.149 137 251.049 138.2 250.549 139.3L238.749 173.1C238.549 173.8 237.849 174.3 237.049 174.3H203.649C202.449 174.3 201.649 173.1 202.049 172L213.949 138.3C214.149 137.4 214.849 137 215.549 137Z" fill="#FFF7EF" stroke="#333333" stroke-width="0.5"/>
<path id="Vector_164" d="M213.851 136.398L187.851 115.498C186.951 114.698 185.551 115.098 185.151 116.298L173.251 149.998C173.051 150.698 173.251 151.498 173.851 151.898L199.851 172.798C200.751 173.598 202.151 173.198 202.551 171.998L214.451 138.298C214.651 137.598 214.451 136.798 213.851 136.398Z" fill="#FFB26B" stroke="#333333" stroke-width="0.5"/>
<path id="Vector_165" d="M188.449 114.2L221.749 114C222.349 114 223.049 114.2 223.449 114.6L249.249 135.6C249.749 136 249.449 136.9 248.749 136.9L215.449 137C214.849 137 214.149 136.8 213.749 136.4L187.949 115.4C187.449 115 187.749 114.2 188.449 114.2Z" fill="#FFF7EF" stroke="#333333" stroke-width="0.5"/>
<path id="Vector_166" d="M227.051 211.901C226.151 211.201 225.051 210.801 223.851 210.801L189.851 210.901C189.051 210.901 188.25 211.401 187.95 212.201L175.751 246.801C175.451 247.601 175.751 248.501 176.351 249.001L202.751 270.401C203.651 271.101 204.75 271.501 205.951 271.501L239.951 271.401C240.751 271.401 241.551 270.901 241.851 270.101L254.051 235.501C254.351 234.701 254.05 233.801 253.451 233.301L227.051 211.901Z" fill="#333333"/>
<path id="Vector_167" d="M218.45 234H251.85C253.05 234 253.95 235.2 253.45 236.3L241.65 270C241.45 270.7 240.75 271.2 239.95 271.2H206.55C205.35 271.2 204.45 270 204.95 268.9L216.85 235.2C217.05 234.4 217.75 234 218.45 234Z" fill="#FFF7EF" stroke="#333333" stroke-width="0.5"/>
<path id="Vector_168" d="M216.749 233.301L190.749 212.401C189.849 211.601 188.449 212.001 188.049 213.201L176.149 246.901C175.949 247.601 176.149 248.401 176.749 248.801L202.749 269.701C203.649 270.501 205.049 270.101 205.449 268.901L217.349 235.201C217.549 234.601 217.349 233.801 216.749 233.301Z" fill="#FFB26B" stroke="#333333" stroke-width="0.5"/>
<path id="Vector_169" d="M191.35 211.1L224.65 211C225.25 211 225.95 211.2 226.35 211.6L252.15 232.6C252.65 233 252.35 233.9 251.65 233.9L218.35 234C217.75 234 217.05 233.8 216.65 233.4L190.85 212.4C190.35 212 190.65 211.1 191.35 211.1Z" fill="#FFF7EF" stroke="#333333" stroke-width="0.5"/>
<path id="Vector_170" d="M240.25 174.702C239.35 174.002 238.25 173.602 237.05 173.602L203.05 173.702C202.25 173.702 201.45 174.202 201.15 175.002L188.95 209.602C188.65 210.402 188.95 211.302 189.55 211.802L215.95 233.202C216.85 233.902 217.95 234.302 219.15 234.302L253.15 234.202C253.95 234.202 254.75 233.702 255.05 232.902L267.25 198.302C267.55 197.502 267.25 196.602 266.65 196.102L240.25 174.702Z" fill="#333333"/>
<path id="Vector_171" d="M231.649 196.699H265.049C266.249 196.699 267.049 197.899 266.649 198.999L254.749 232.799C254.549 233.499 253.849 233.999 253.049 233.999H219.649C218.449 233.999 217.549 232.799 218.049 231.699L229.949 197.999C230.249 197.199 230.849 196.699 231.649 196.699Z" fill="#282018" stroke="#333333" stroke-width="0.5"/>
<path id="Vector_172" d="M229.851 196.101L203.851 175.201C202.951 174.401 201.551 174.801 201.151 176.001L189.251 209.701C189.051 210.401 189.251 211.201 189.851 211.601L215.851 232.501C216.751 233.301 218.151 232.901 218.551 231.701L230.451 198.001C230.651 197.301 230.451 196.601 229.851 196.101Z" fill="#282018" stroke="#333333" stroke-width="0.5"/>
<path id="Vector_173" d="M204.449 173.901L237.749 173.801C238.349 173.801 239.049 174.001 239.449 174.401L265.249 195.401C265.749 195.801 265.449 196.701 264.749 196.701L231.449 196.801C230.849 196.801 230.149 196.601 229.749 196.201L203.949 175.201C203.449 174.801 203.749 173.901 204.449 173.901Z" fill="#FFF7EF" stroke="#333333" stroke-width="0.5"/>
<path id="Vector_174" d="M253.25 137.901C252.35 137.201 251.25 136.801 250.05 136.801L216.05 136.901C215.25 136.901 214.45 137.401 214.15 138.201L201.95 172.801C201.65 173.601 201.95 174.501 202.55 175.001L228.95 196.401C229.85 197.101 230.95 197.501 232.15 197.501L266.15 197.401C266.95 197.401 267.75 196.901 268.05 196.101L280.25 161.501C280.55 160.701 280.25 159.801 279.65 159.301L253.25 137.901Z" fill="#333333"/>
<path id="Vector_175" d="M244.649 159.898H278.049C279.249 159.898 280.149 161.098 279.649 162.198L267.749 195.998C267.549 196.698 266.849 197.198 266.049 197.198H232.649C231.449 197.198 230.549 195.998 231.049 194.898L242.949 161.198C243.249 160.398 243.849 159.898 244.649 159.898Z" fill="#FFF7EF" stroke="#333333" stroke-width="0.5"/>
<path id="Vector_176" d="M242.851 159.301L216.851 138.401C215.951 137.601 214.551 138.001 214.151 139.201L202.251 172.901C202.051 173.601 202.251 174.401 202.851 174.801L228.851 195.701C229.751 196.501 231.151 196.101 231.551 194.901L243.451 161.201C243.651 160.601 243.451 159.801 242.851 159.301Z" fill="#FFB26B" stroke="#333333" stroke-width="0.5"/>
<path id="Vector_177" d="M217.449 137.1L250.749 137C251.349 137 252.049 137.2 252.449 137.6L278.249 158.6C278.749 159 278.449 159.9 277.749 159.9L244.449 160C243.849 160 243.149 159.8 242.749 159.4L216.949 138.4C216.449 138 216.749 137.1 217.449 137.1Z" fill="#FFF7EF" stroke="#333333" stroke-width="0.5"/>
<path id="Vector_178" d="M256.051 234.901C255.151 234.201 254.051 233.801 252.851 233.801L218.851 233.901C218.051 233.901 217.25 234.401 216.95 235.201L204.751 269.801C204.451 270.601 204.751 271.501 205.351 272.001L231.751 293.401C232.651 294.101 233.75 294.501 234.951 294.501L268.951 294.401C269.751 294.401 270.551 293.901 270.851 293.101L283.05 258.501C283.35 257.701 283.051 256.801 282.451 256.301L256.051 234.901Z" fill="#333333"/>
<path id="Vector_179" d="M247.45 256.898H280.85C282.05 256.898 282.95 258.098 282.45 259.198L270.65 292.998C270.45 293.698 269.75 294.198 268.95 294.198H235.55C234.35 294.198 233.45 292.998 233.95 291.898L245.85 258.198C246.05 257.398 246.75 256.898 247.45 256.898Z" fill="#FFF7EF" stroke="#333333" stroke-width="0.5"/>
<path id="Vector_180" d="M245.749 256.301L219.749 235.401C218.849 234.601 217.449 235.001 217.049 236.201L205.149 269.901C204.949 270.601 205.149 271.401 205.749 271.801L231.749 292.701C232.649 293.501 234.049 293.101 234.449 291.901L246.349 258.201C246.549 257.601 246.349 256.801 245.749 256.301Z" fill="#FFB26B" stroke="#333333" stroke-width="0.5"/>
<path id="Vector_181" d="M220.35 234.1L253.65 234C254.25 234 254.95 234.2 255.35 234.6L281.15 255.6C281.65 256 281.35 256.9 280.65 256.9L247.35 257C246.75 257 246.05 256.8 245.65 256.4L219.85 235.4C219.35 235 219.65 234.1 220.35 234.1Z" fill="#FFF7EF" stroke="#333333" stroke-width="0.5"/>
<path id="Vector_182" d="M298.951 197.498C298.051 196.798 296.951 196.398 295.751 196.398L225.751 196.498C224.951 196.498 224.151 196.998 223.851 197.798L211.651 232.398C211.351 233.198 211.651 234.098 212.251 234.598L238.651 255.998C239.551 256.698 240.651 257.098 241.851 257.098L311.451 256.798C312.251 256.798 313.051 256.298 313.351 255.498L325.551 220.898C325.851 220.098 325.551 219.198 324.951 218.698L298.951 197.498Z" fill="#333333"/>
<path id="Vector_183" d="M254.35 219.602H323.85C325.05 219.602 325.95 220.802 325.45 221.902L313.55 255.602C313.35 256.302 312.65 256.802 311.85 256.802H242.35C241.15 256.802 240.25 255.602 240.75 254.502L252.65 220.802C252.95 220.002 253.55 219.602 254.35 219.602Z" fill="#FFF7EF" stroke="#333333" stroke-width="0.5"/>
<path id="Vector_184" d="M227.151 196.799L296.451 196.699C297.051 196.699 297.651 196.899 298.151 197.299L323.951 218.299C324.451 218.699 324.151 219.599 323.451 219.599L254.151 219.699C253.551 219.699 252.951 219.499 252.451 219.099L226.651 198.099C226.151 197.599 226.451 196.799 227.151 196.799Z" fill="#FFB26B" stroke="#333333" stroke-width="0.5"/>
<path id="Vector_185" d="M318.25 160.901C317.35 160.201 316.25 159.801 315.05 159.801L281.05 159.901C280.25 159.901 279.45 160.401 279.15 161.201L266.95 195.801C266.65 196.601 266.95 197.501 267.55 198.001L293.95 219.401C294.85 220.101 295.95 220.501 297.15 220.501L331.15 220.401C331.95 220.401 332.75 219.901 333.05 219.101L345.25 184.501C345.55 183.701 345.25 182.801 344.65 182.301L318.25 160.901Z" fill="#333333"/>
<path id="Vector_186" d="M309.651 182.898H343.051C344.251 182.898 345.051 184.098 344.651 185.198L332.851 218.998C332.651 219.698 331.951 220.198 331.151 220.198H297.751C296.551 220.198 295.751 218.998 296.151 217.898L308.051 184.198C308.251 183.398 308.951 182.898 309.651 182.898Z" fill="#FFF7EF" stroke="#333333" stroke-width="0.5"/>
<path id="Vector_187" d="M307.95 182.301L281.95 161.401C281.05 160.601 279.65 161.001 279.25 162.201L267.35 195.901C267.15 196.601 267.35 197.401 267.95 197.801L293.95 218.701C294.85 219.501 296.25 219.101 296.65 217.901L308.55 184.201C308.75 183.501 308.55 182.801 307.95 182.301Z" fill="#FFB26B" stroke="#333333" stroke-width="0.5"/>
<path id="Vector_188" d="M282.551 160.1L315.851 160C316.451 160 317.151 160.2 317.551 160.6L343.351 181.6C343.851 182 343.551 182.9 342.851 182.9L309.551 183C308.951 183 308.251 182.8 307.851 182.4L282.051 161.4C281.451 161 281.851 160.1 282.551 160.1Z" fill="#FFF7EF" stroke="#333333" stroke-width="0.5"/>
<path id="Vector_189" d="M282.25 160.799C281.35 160.099 280.25 159.699 279.05 159.699L245.05 159.799C244.25 159.799 243.45 160.299 243.15 161.099L230.95 195.699C230.65 196.499 230.95 197.399 231.55 197.899L257.95 219.299C258.85 219.999 259.95 220.399 261.15 220.399L295.15 220.299C295.95 220.299 296.75 219.799 297.05 218.999L309.25 184.399C309.55 183.599 309.25 182.699 308.65 182.199L282.25 160.799Z" fill="#333333"/>
<path id="Vector_190" d="M273.649 182.898H307.049C308.249 182.898 309.149 184.098 308.649 185.198L296.749 218.998C296.549 219.698 295.849 220.198 295.049 220.198H261.649C260.449 220.198 259.549 218.998 260.049 217.898L271.949 184.198C272.249 183.398 272.849 182.898 273.649 182.898Z" fill="#FFF7EF" stroke="#333333" stroke-width="0.5"/>
<path id="Vector_191" d="M271.851 182.301L245.851 161.401C244.951 160.601 243.551 161.001 243.151 162.201L231.251 195.901C231.051 196.601 231.251 197.401 231.851 197.801L257.851 218.701C258.751 219.501 260.151 219.101 260.551 217.901L272.451 184.201C272.651 183.501 272.451 182.801 271.851 182.301Z" fill="#FFB26B" stroke="#333333" stroke-width="0.5"/>
<path id="Vector_192" d="M246.449 160.1L279.749 160C280.349 160 281.049 160.2 281.449 160.6L307.249 181.6C307.749 182 307.449 182.9 306.749 182.9L273.449 183C272.849 183 272.149 182.8 271.749 182.4L245.949 161.4C245.449 161 245.749 160.1 246.449 160.1Z" fill="#FFF7EF" stroke="#333333" stroke-width="0.5"/>
<path id="Vector_193" fill-rule="evenodd" clip-rule="evenodd" d="M303.436 245.893L303.864 242.799H300.87L299.053 245.893H297.129L304.933 232.661H306.75L305.253 246L303.436 245.893ZM304.612 236.396L302.367 240.131H304.077L304.612 236.396ZM294.028 237.676L291.035 245.787H289.325L294.028 232.554H295.632L296.38 240.771L299.267 232.661H300.977L296.273 245.893H294.777L294.028 237.676ZM287.08 242.692H284.086L282.269 245.787H280.345L288.149 232.554H289.966L288.469 245.893H286.545L287.08 242.692ZM287.935 236.182L285.69 239.917H287.4L287.935 236.182ZM279.062 232.341H280.879L277.138 243.012H281.093L280.131 245.573H274.465L279.062 232.341ZM271.472 245.04C270.723 245.573 269.868 245.893 269.12 245.787C268.264 245.787 267.73 245.466 267.302 244.933C266.875 244.399 266.768 243.546 266.768 242.585C266.768 241.518 267.089 240.344 267.623 238.85C268.158 237.463 268.692 236.182 269.44 235.115C270.082 234.048 270.83 233.301 271.685 232.767C272.434 232.234 273.289 231.914 274.037 232.02C274.786 232.02 275.427 232.341 275.855 232.874C276.282 233.408 276.389 234.261 276.389 235.222C276.389 236.289 276.068 237.463 275.534 238.957C274.999 240.344 274.465 241.625 273.717 242.692C272.968 243.759 272.327 244.506 271.472 245.04ZM274.251 235.862C274.144 235.115 273.717 234.688 273.075 234.688C272.434 234.688 271.792 235.008 271.151 235.755C270.509 236.502 269.975 237.57 269.44 238.85C269.013 240.237 268.799 241.198 268.906 241.945C269.013 242.692 269.44 243.012 270.082 243.012C270.723 243.012 271.365 242.692 272.006 241.945C272.648 241.198 273.182 240.131 273.717 238.85C274.144 237.676 274.358 236.609 274.251 235.862ZM263.561 237.143C263.774 237.249 263.988 237.463 264.416 237.676C264.844 237.89 265.271 238.103 265.592 238.423C265.913 238.637 266.02 239.064 266.126 239.597C266.233 240.131 266.126 240.878 265.806 241.731C265.485 242.585 265.164 243.225 264.63 243.866C264.095 244.506 263.561 244.933 262.919 245.253C262.278 245.573 261.636 245.787 260.995 245.787C260.247 245.787 259.605 245.466 259.285 244.933C258.857 244.399 258.75 243.652 258.75 242.692L260.674 241.198C260.674 242.478 260.995 243.119 261.85 243.119C262.278 243.119 262.705 243.012 263.026 242.799C263.347 242.585 263.668 242.265 263.775 241.838C263.881 241.518 263.881 241.305 263.881 241.091C263.881 240.878 263.774 240.771 263.561 240.558C263.347 240.344 263.133 240.237 262.705 240.024C262.278 239.811 261.85 239.49 261.53 239.277C261.209 239.064 260.995 238.637 260.995 238.103C260.888 237.57 260.995 236.823 261.316 235.969C261.636 235.222 261.957 234.475 262.492 233.941C263.026 233.301 263.561 232.874 264.095 232.554C264.737 232.234 265.271 232.02 265.913 232.02C266.661 232.02 267.195 232.341 267.516 232.874C267.837 233.408 268.051 234.048 267.944 234.902L266.126 236.289C266.126 235.755 266.019 235.329 265.806 235.008C265.592 234.688 265.271 234.582 264.95 234.582C264.63 234.582 264.202 234.688 263.881 235.008C263.561 235.222 263.24 235.542 263.133 235.969C263.026 236.289 263.026 236.502 263.026 236.716C263.24 236.823 263.347 237.036 263.561 237.143Z" fill="black"/>
<path id="Vector_194" d="M214.75 199C214.75 200.918 214.184 202.644 213.241 203.986C212.297 205.233 211.071 206 209.75 206C208.429 206 207.203 205.233 206.259 203.986C205.316 202.74 204.75 201.014 204.75 199C204.75 196.986 205.316 195.356 206.259 194.014C207.203 192.767 208.429 192 209.75 192C211.071 192 212.297 192.767 213.241 194.014C214.184 195.356 214.75 197.082 214.75 199Z" fill="#282018" stroke="#FFB26B" stroke-width="0.5"/>
<path id="Vector_195" fill-rule="evenodd" clip-rule="evenodd" d="M208.519 194H199.75V203H208.519H208.981C210.55 202.7 211.75 200.8 211.75 198.5C211.75 196.2 210.55 194.4 208.981 194H208.519Z" fill="white"/>
<path id="Vector_196" d="M199.214 194.5V194H198.75V194.5H199.214ZM199.214 203.5H198.75V204H199.214V203.5ZM208.5 203.5V204H208.964V203.5H208.5ZM208.5 203.5L208.407 203H208.036V203.4H208.5V203.5ZM208.5 194.5H208.036V194.9L208.407 195L208.5 194.5ZM208.5 194.5H208.964V194H208.5V194.5ZM199.214 195H208.036V194H199.214V195ZM199.679 203.5V194.5H198.75V203.5H199.679ZM208.036 203H199.214V204H208.036V203ZM208.5 203H208.036V204H208.5V203ZM210.821 199C210.821 201.1 209.707 202.7 208.407 203L208.593 204C210.45 203.6 211.75 201.5 211.75 199.1H210.821V199ZM208.407 195C209.707 195.3 210.821 196.8 210.821 199H211.75C211.75 196.6 210.45 194.4 208.593 194.1L208.407 195ZM208.036 195H208.5V194H208.036V195Z" fill="black"/>
<path id="Vector_197" d="M201.75 199C201.75 201.233 200.386 203 198.75 203C197.114 203 195.75 201.326 195.75 199C195.75 196.674 197.114 195 198.75 195C200.386 195 201.75 196.767 201.75 199Z" fill="white" stroke="black" stroke-width="0.5"/>
<path id="Vector_198" fill-rule="evenodd" clip-rule="evenodd" d="M111.691 158.461C112.859 157.846 114.118 157.846 115.287 158.461L120.411 180.892C122.209 187.345 122.659 202.606 110.882 214.282C103.869 221.247 94.7891 230.363 89.6647 241.732C87.1475 247.365 85.5293 253.511 85.6192 260.271C85.7091 266.929 87.5071 274.303 91.9123 282.395C100.543 298.373 117.534 307.898 131.379 308.82C138.302 309.23 144.055 307.591 147.651 303.801C151.158 300.217 152.866 294.378 151.068 285.467C144.864 254.945 142.257 234.05 142.527 219.916C142.797 205.883 145.853 197.792 151.607 194.105C154.394 192.261 157.72 191.646 161.137 191.544C164.643 191.442 168.419 192.056 172.285 192.773C174.172 193.183 176.15 193.593 178.038 194.002C184.331 195.334 191.703 196.768 198.356 196.87C198.895 198.202 198.895 199.636 198.266 200.967C191.344 200.762 183.432 199.328 177.139 197.997C175.251 197.587 173.363 197.177 171.565 196.87C167.7 196.153 164.193 195.641 161.047 195.641C157.9 195.641 155.293 196.256 153.225 197.69C149.18 200.353 146.123 206.396 145.943 220.018C145.674 233.641 148.191 254.125 154.394 284.546C156.462 294.481 154.574 302.06 149.899 306.874C145.314 311.586 138.392 313.429 130.93 312.917C116.096 311.893 97.9357 301.855 88.5859 284.546C83.911 275.942 81.9332 267.85 81.7534 260.373C81.6635 252.896 83.3716 246.034 86.1586 239.888C91.6426 227.7 101.262 218.072 108.185 211.21C118.703 200.762 118.164 187.345 116.635 182.121L111.691 158.461Z" fill="black"/>
<path id="Vector_199" d="M252.55 219L226.55 198.1C225.65 197.3 224.25 197.7 223.85 198.9L211.95 232.6C211.75 233.3 211.95 234.1 212.55 234.5L238.55 255.4C239.45 256.2 240.85 255.8 241.25 254.6L253.15 220.9C253.35 220.2 253.15 219.4 252.55 219Z" fill="#FFB26B" stroke="#333333" stroke-width="0.5"/>
<g id="Group 1321318928">
<g id="Group 34412">
<g id="Union" filter="url(#filter0_dii_473_7489)">
<path d="M315.973 93.1362C316.43 93.2003 316.851 93.4209 317.164 93.7603L340.931 119.51C341.504 120.132 341.625 121.046 341.233 121.795L324.215 154.29C323.823 155.038 323.003 155.46 322.166 155.342L287.464 150.474C287.007 150.409 286.586 150.189 286.272 149.85L262.506 124.099C261.933 123.478 261.812 122.564 262.204 121.815L279.221 89.3202C279.613 88.5714 280.434 88.15 281.271 88.2674L315.973 93.1362Z" fill="#FF9815" fill-opacity="0.5" shape-rendering="crispEdges"/>
<path d="M316.797 94.0994C316.562 93.8448 316.246 93.6794 315.903 93.6313L281.201 88.7626C280.574 88.6745 279.958 88.9906 279.664 89.5522L262.647 122.047C262.353 122.609 262.444 123.294 262.874 123.76L286.64 149.51C286.875 149.765 287.191 149.93 287.534 149.979L322.235 154.847C322.863 154.935 323.478 154.619 323.773 154.058L340.79 121.563C341.084 121.001 340.993 120.315 340.563 119.85L316.797 94.0994Z" stroke="white" shape-rendering="crispEdges"/>
</g>
<g id="Rectangle 4622" filter="url(#filter1_di_473_7489)">
<path d="M305.101 116.426C305.494 115.674 305.371 114.756 304.793 114.135L282.033 89.6955C281.093 88.6861 279.438 88.9088 278.798 90.1307L262.208 121.809C261.815 122.561 261.938 123.479 262.516 124.1L285.276 148.539C286.216 149.548 287.871 149.326 288.511 148.104L305.101 116.426Z" fill="#FFE9CE" fill-opacity="0.5" shape-rendering="crispEdges"/>
<path d="M304.658 116.194C304.953 115.63 304.86 114.941 304.427 114.476L281.667 90.0363C280.962 89.2792 279.72 89.4462 279.241 90.3626L262.651 122.041C262.356 122.605 262.448 123.293 262.882 123.759L285.642 148.198C286.347 148.955 287.588 148.788 288.068 147.872L304.658 116.194Z" stroke="white" shape-rendering="crispEdges"/>
</g>
<path id="Rectangle 4626" d="M304.658 116.194C304.953 115.63 304.86 114.941 304.427 114.476L281.667 90.0363C280.962 89.2792 279.72 89.4462 279.241 90.3626L262.651 122.041C262.356 122.605 262.448 123.293 262.882 123.759L285.642 148.198C286.347 148.955 287.588 148.788 288.068 147.872L304.658 116.194Z" fill="url(#paint0_linear_473_7489)" fill-opacity="0.2" stroke="white"/>
<g id="Rectangle 4625" filter="url(#filter2_dii_473_7489)">
<path d="M304.214 115.961C304.608 115.209 305.433 114.788 306.272 114.909L339.323 119.697C340.688 119.895 341.448 121.382 340.808 122.604L324.219 154.283C323.825 155.034 323 155.456 322.16 155.334L289.109 150.546C287.744 150.349 286.985 148.861 287.624 147.639L304.214 115.961Z" fill="#FF9815" fill-opacity="0.2" shape-rendering="crispEdges"/>
<path d="M304.657 116.193C304.952 115.629 305.571 115.313 306.201 115.404L339.251 120.192C340.275 120.34 340.845 121.456 340.365 122.372L323.776 154.051C323.48 154.614 322.862 154.93 322.232 154.839L289.181 150.051C288.157 149.903 287.587 148.787 288.067 147.871L304.657 116.193Z" stroke="white" shape-rendering="crispEdges"/>
</g>
<path id="Rectangle 4627" d="M304.657 116.193C304.952 115.629 305.571 115.313 306.201 115.404L339.251 120.192C340.275 120.34 340.845 121.456 340.365 122.372L323.776 154.051C323.48 154.614 322.862 154.93 322.232 154.839L289.181 150.051C288.157 149.903 287.587 148.787 288.067 147.871L304.657 116.193Z" fill="url(#paint1_linear_473_7489)" fill-opacity="0.2" stroke="white"/>
<path id="Rectangle 4628" d="M304.657 116.193C304.952 115.629 305.571 115.313 306.201 115.404L339.251 120.192C340.275 120.34 340.845 121.456 340.365 122.372L323.776 154.051C323.48 154.614 322.862 154.93 322.232 154.839L289.181 150.051C288.157 149.903 287.587 148.787 288.067 147.871L304.657 116.193Z" fill="url(#paint2_linear_473_7489)" fill-opacity="0.2" stroke="white"/>
<g id="Rectangle 4624" filter="url(#filter3_di_473_7489)">
<path d="M339.114 120.157C340.044 120.288 340.625 119.179 339.987 118.489L317.164 93.7603C316.851 93.4209 316.43 93.2003 315.973 93.1362L282.648 88.4606C281.718 88.3301 281.137 89.4387 281.774 90.1292L304.597 114.857C304.911 115.197 305.332 115.417 305.789 115.482L339.114 120.157Z" fill="#FF9815" fill-opacity="0.2" shape-rendering="crispEdges"/>
<path d="M339.183 119.662C339.648 119.727 339.939 119.173 339.62 118.828L316.797 94.0994C316.562 93.8448 316.246 93.6794 315.903 93.6313L282.579 88.9558C282.113 88.8905 281.823 89.4448 282.142 89.7901L304.965 114.518C305.2 114.773 305.516 114.938 305.859 114.986L339.183 119.662Z" stroke="white" shape-rendering="crispEdges"/>
</g>
</g>
<g id="Group 1321318922">
<path id="Vector_200" fill-rule="evenodd" clip-rule="evenodd" d="M290.025 105.334C295.219 110.907 296.231 121.536 292.283 129.074C288.336 136.612 280.925 138.204 275.73 132.631C270.535 127.057 269.524 116.428 273.472 108.89C277.419 101.352 284.83 99.7601 290.025 105.334Z" fill="white" fill-opacity="0.3"/>
<path id="Vector_201" fill-rule="evenodd" clip-rule="evenodd" d="M288.9 107.479C293.278 112.176 294.131 121.135 290.804 127.488C287.477 133.841 281.23 135.183 276.852 130.485C272.474 125.788 271.622 116.83 274.949 110.477C278.276 104.124 284.522 102.781 288.9 107.479Z" fill="black"/>
<g id="Group 1321318921">
<path id="Vector_202" fill-rule="evenodd" clip-rule="evenodd" d="M286.829 119.643C286.733 119.668 286.639 119.638 286.563 119.556L279.644 112.173C279.521 112.042 279.579 111.738 279.738 111.696L282.205 111.063C282.3 111.038 282.394 111.068 282.471 111.15L289.384 118.527C289.507 118.658 289.449 118.962 289.29 119.004L286.829 119.643Z" fill="#1CE2AF"/>
<path id="Vector_203" fill-rule="evenodd" clip-rule="evenodd" d="M278.967 113.47L285.884 120.851C285.961 120.933 286.007 121.053 286.018 121.191L286.286 124.742C286.303 124.972 286.115 125.138 285.992 125.006L279.074 117.624C278.998 117.542 278.951 117.422 278.941 117.284L278.673 113.733C278.656 113.503 278.843 113.338 278.967 113.47Z" fill="#6697CE"/>
<path id="Vector_204" fill-rule="evenodd" clip-rule="evenodd" d="M278.134 118.837C278.23 118.812 278.324 118.842 278.4 118.923L285.313 126.3C285.437 126.432 285.378 126.736 285.219 126.777L282.758 127.416C282.663 127.441 282.569 127.411 282.493 127.33L275.574 119.947C275.45 119.815 275.509 119.511 275.668 119.47L278.134 118.837Z" fill="#C931F7"/>
</g>
</g>
</g>
</g>
<defs>
<filter id="filter0_dii_473_7489" x="257.977" y="85.248" width="88.4844" height="78.1143" filterUnits="userSpaceOnUse" color-interpolation-filters="sRGB">
<feFlood flood-opacity="0" result="BackgroundImageFix"/>
<feColorMatrix in="SourceAlpha" type="matrix" values="0 0 0 0 0 0 0 0 0 0 0 0 0 0 0 0 0 0 127 0" result="hardAlpha"/>
<feOffset dy="4"/>
<feGaussianBlur stdDeviation="2"/>
<feComposite in2="hardAlpha" operator="out"/>
<feColorMatrix type="matrix" values="0 0 0 0 0 0 0 0 0 0 0 0 0 0 0 0 0 0 0.1 0"/>
<feBlend mode="normal" in2="BackgroundImageFix" result="effect1_dropShadow_473_7489"/>
<feBlend mode="normal" in="SourceGraphic" in2="effect1_dropShadow_473_7489" result="shape"/>
<feColorMatrix in="SourceAlpha" type="matrix" values="0 0 0 0 0 0 0 0 0 0 0 0 0 0 0 0 0 0 127 0" result="hardAlpha"/>
<feOffset dx="5" dy="5"/>
<feGaussianBlur stdDeviation="2.5"/>
<feComposite in2="hardAlpha" operator="arithmetic" k2="-1" k3="1"/>
<feColorMatrix type="matrix" values="0 0 0 0 0.898307 0 0 0 0 0.52422 0 0 0 0 0.048439 0 0 0 1 0"/>
<feBlend mode="normal" in2="shape" result="effect2_innerShadow_473_7489"/>
<feColorMatrix in="SourceAlpha" type="matrix" values="0 0 0 0 0 0 0 0 0 0 0 0 0 0 0 0 0 0 127 0" result="hardAlpha"/>
<feOffset dx="-3" dy="-3"/>
<feGaussianBlur stdDeviation="2.5"/>
<feComposite in2="hardAlpha" operator="arithmetic" k2="-1" k3="1"/>
<feColorMatrix type="matrix" values="0 0 0 0 1 0 0 0 0 0.870342 0 0 0 0 0.705436 0 0 0 1 0"/>
<feBlend mode="normal" in2="effect2_innerShadow_473_7489" result="effect3_innerShadow_473_7489"/>
</filter>
<filter id="filter1_di_473_7489" x="257.98" y="89.0586" width="51.3477" height="68.1182" filterUnits="userSpaceOnUse" color-interpolation-filters="sRGB">
<feFlood flood-opacity="0" result="BackgroundImageFix"/>
<feColorMatrix in="SourceAlpha" type="matrix" values="0 0 0 0 0 0 0 0 0 0 0 0 0 0 0 0 0 0 127 0" result="hardAlpha"/>
<feOffset dy="4"/>
<feGaussianBlur stdDeviation="2"/>
<feComposite in2="hardAlpha" operator="out"/>
<feColorMatrix type="matrix" values="0 0 0 0 0 0 0 0 0 0 0 0 0 0 0 0 0 0 0.1 0"/>
<feBlend mode="normal" in2="BackgroundImageFix" result="effect1_dropShadow_473_7489"/>
<feBlend mode="normal" in="SourceGraphic" in2="effect1_dropShadow_473_7489" result="shape"/>
<feColorMatrix in="SourceAlpha" type="matrix" values="0 0 0 0 0 0 0 0 0 0 0 0 0 0 0 0 0 0 127 0" result="hardAlpha"/>
<feOffset dx="-3" dy="3"/>
<feGaussianBlur stdDeviation="2.5"/>
<feComposite in2="hardAlpha" operator="arithmetic" k2="-1" k3="1"/>
<feColorMatrix type="matrix" values="0 0 0 0 1 0 0 0 0 1 0 0 0 0 1 0 0 0 1 0"/>
<feBlend mode="normal" in2="shape" result="effect2_innerShadow_473_7489"/>
</filter>
<filter id="filter2_dii_473_7489" x="283.395" y="110.889" width="61.6426" height="52.4658" filterUnits="userSpaceOnUse" color-interpolation-filters="sRGB">
<feFlood flood-opacity="0" result="BackgroundImageFix"/>
<feColorMatrix in="SourceAlpha" type="matrix" values="0 0 0 0 0 0 0 0 0 0 0 0 0 0 0 0 0 0 127 0" result="hardAlpha"/>
<feOffset dy="4"/>
<feGaussianBlur stdDeviation="2"/>
<feComposite in2="hardAlpha" operator="out"/>
<feColorMatrix type="matrix" values="0 0 0 0 0 0 0 0 0 0 0 0 0 0 0 0 0 0 0.1 0"/>
<feBlend mode="normal" in2="BackgroundImageFix" result="effect1_dropShadow_473_7489"/>
<feBlend mode="normal" in="SourceGraphic" in2="effect1_dropShadow_473_7489" result="shape"/>
<feColorMatrix in="SourceAlpha" type="matrix" values="0 0 0 0 0 0 0 0 0 0 0 0 0 0 0 0 0 0 127 0" result="hardAlpha"/>
<feOffset dx="-2" dy="-4"/>
<feGaussianBlur stdDeviation="2.5"/>
<feComposite in2="hardAlpha" operator="arithmetic" k2="-1" k3="1"/>
<feColorMatrix type="matrix" values="0 0 0 0 0.898307 0 0 0 0 0.52422 0 0 0 0 0.048439 0 0 0 1 0"/>
<feBlend mode="normal" in2="shape" result="effect2_innerShadow_473_7489"/>
<feColorMatrix in="SourceAlpha" type="matrix" values="0 0 0 0 0 0 0 0 0 0 0 0 0 0 0 0 0 0 127 0" result="hardAlpha"/>
<feOffset dx="3" dy="3"/>
<feGaussianBlur stdDeviation="2.5"/>
<feComposite in2="hardAlpha" operator="arithmetic" k2="-1" k3="1"/>
<feColorMatrix type="matrix" values="0 0 0 0 1 0 0 0 0 0.870342 0 0 0 0 0.705436 0 0 0 1 0"/>
<feBlend mode="normal" in2="effect2_innerShadow_473_7489" result="effect3_innerShadow_473_7489"/>
</filter>
<filter id="filter3_di_473_7489" x="277.506" y="88.4502" width="66.75" height="39.7178" filterUnits="userSpaceOnUse" color-interpolation-filters="sRGB">
<feFlood flood-opacity="0" result="BackgroundImageFix"/>
<feColorMatrix in="SourceAlpha" type="matrix" values="0 0 0 0 0 0 0 0 0 0 0 0 0 0 0 0 0 0 127 0" result="hardAlpha"/>
<feOffset dy="4"/>
<feGaussianBlur stdDeviation="2"/>
<feComposite in2="hardAlpha" operator="out"/>
<feColorMatrix type="matrix" values="0 0 0 0 0 0 0 0 0 0 0 0 0 0 0 0 0 0 0.1 0"/>
<feBlend mode="normal" in2="BackgroundImageFix" result="effect1_dropShadow_473_7489"/>
<feBlend mode="normal" in="SourceGraphic" in2="effect1_dropShadow_473_7489" result="shape"/>
<feColorMatrix in="SourceAlpha" type="matrix" values="0 0 0 0 0 0 0 0 0 0 0 0 0 0 0 0 0 0 127 0" result="hardAlpha"/>
<feOffset dx="-2" dy="5"/>
<feGaussianBlur stdDeviation="0.5"/>
<feComposite in2="hardAlpha" operator="arithmetic" k2="-1" k3="1"/>
<feColorMatrix type="matrix" values="0 0 0 0 0.970833 0 0 0 0 0.543501 0 0 0 0 0 0 0 0 1 0"/>
<feBlend mode="normal" in2="shape" result="effect2_innerShadow_473_7489"/>
</filter>
<linearGradient id="paint0_linear_473_7489" x1="274.308" y1="86.8486" x2="285.83" y2="152.146" gradientUnits="userSpaceOnUse">
<stop stop-color="white"/>
<stop offset="0.5" stop-color="#FFB659"/>
<stop offset="0.5" stop-color="#FFFEFC"/>
<stop offset="1" stop-color="#FFFEFC"/>
</linearGradient>
<linearGradient id="paint1_linear_473_7489" x1="346.063" y1="124.425" x2="285.829" y2="152.145" gradientUnits="userSpaceOnUse">
<stop stop-color="white"/>
<stop offset="0.5" stop-color="#FFB659"/>
<stop offset="0.5" stop-color="#FFFEFC"/>
<stop offset="1" stop-color="#FFFEFC"/>
</linearGradient>
<linearGradient id="paint2_linear_473_7489" x1="302.25" y1="177.997" x2="271.75" y2="123.997" gradientUnits="userSpaceOnUse">
<stop stop-color="white"/>
<stop offset="0.5" stop-color="#FFB659"/>
<stop offset="0.5" stop-color="#FFFEFC"/>
<stop offset="1" stop-color="#FFFEFC"/>
</linearGradient>
</defs>
</svg>
